{"token2id": {"TIME_SHIFT<10>": 0, "TIME_SHIFT<20>": 1, "TIME_SHIFT<30>": 2, "TIME_SHIFT<40>": 3, "TIME_SHIFT<50>": 4, "TIME_SHIFT<60>": 5, "TIME_SHIFT<70>": 6, "TIME_SHIFT<80>": 7, "TIME_SHIFT<90>": 8, "TIME_SHIFT<100>": 9, "TIME_SHIFT<110>": 10, "TIME_SHIFT<120>": 11, "TIME_SHIFT<130>": 12, "TIME_SHIFT<140>": 13, "TIME_SHIFT<150>": 14, "TIME_SHIFT<160>": 15, "TIME_SHIFT<170>": 16, "TIME_SHIFT<180>": 17, "TIME_SHIFT<190>": 18, "TIME_SHIFT<200>": 19, "TIME_SHIFT<210>": 20, "TIME_SHIFT<220>": 21, "TIME_SHIFT<230>": 22, "TIME_SHIFT<240>": 23, "TIME_SHIFT<250>": 24, "TIME_SHIFT<260>": 25, "TIME_SHIFT<270>": 26, "TIME_SHIFT<280>": 27, "TIME_SHIFT<290>": 28, "TIME_SHIFT<300>": 29, "TIME_SHIFT<310>": 30, "TIME_SHIFT<320>": 31, "TIME_SHIFT<330>": 32, "TIME_SHIFT<340>": 33, "TIME_SHIFT<350>": 34, "TIME_SHIFT<360>": 35, "TIME_SHIFT<370>": 36, "TIME_SHIFT<380>": 37, "TIME_SHIFT<390>": 38, "TIME_SHIFT<400>": 39, "TIME_SHIFT<410>": 40, "TIME_SHIFT<420>": 41, "TIME_SHIFT<430>": 42, "TIME_SHIFT<440>": 43, "TIME_SHIFT<450>": 44, "TIME_SHIFT<460>": 45, "TIME_SHIFT<470>": 46, "TIME_SHIFT<480>": 47, "TIME_SHIFT<490>": 48, "TIME_SHIFT<500>": 49, "TIME_SHIFT<510>": 50, "TIME_SHIFT<520>": 51, "TIME_SHIFT<530>": 52, "TIME_SHIFT<540>": 53, "TIME_SHIFT<550>": 54, "TIME_SHIFT<560>": 55, "TIME_SHIFT<570>": 56, "TIME_SHIFT<580>": 57, "TIME_SHIFT<590>": 58, "TIME_SHIFT<600>": 59, "TIME_SHIFT<610>": 60, "TIME_SHIFT<620>": 61, "TIME_SHIFT<630>": 62, "TIME_SHIFT<640>": 63, "TIME_SHIFT<650>": 64, "TIME_SHIFT<660>": 65, "TIME_SHIFT<670>": 66, "TIME_SHIFT<680>": 67, "TIME_SHIFT<690>": 68, "TIME_SHIFT<700>": 69, "TIME_SHIFT<710>": 70, "TIME_SHIFT<720>": 71, "TIME_SHIFT<730>": 72, "TIME_SHIFT<740>": 73, "TIME_SHIFT<750>": 74, "TIME_SHIFT<760>": 75, "TIME_SHIFT<770>": 76, "TIME_SHIFT<780>": 77, "TIME_SHIFT<790>": 78, "TIME_SHIFT<800>": 79, "TIME_SHIFT<810>": 80, "TIME_SHIFT<820>": 81, "TIME_SHIFT<830>": 82, "TIME_SHIFT<840>": 83, "TIME_SHIFT<850>": 84, "TIME_SHIFT<860>": 85, "TIME_SHIFT<870>": 86, "TIME_SHIFT<880>": 87, "TIME_SHIFT<890>": 88, "TIME_SHIFT<900>": 89, "TIME_SHIFT<910>": 90, "TIME_SHIFT<920>": 91, "TIME_SHIFT<930>": 92, "TIME_SHIFT<940>": 93, "TIME_SHIFT<950>": 94, "TIME_SHIFT<960>": 95, "TIME_SHIFT<970>": 96, "TIME_SHIFT<980>": 97, "TIME_SHIFT<990>": 98, "TIME_SHIFT<1000>": 99, "SET_VELOCITY<0>": 100, "NOTE_ON<0>": 228, "NOTE_OFF<0>": 356, "SET_VELOCITY<1>": 101, "NOTE_ON<1>": 229, "NOTE_OFF<1>": 357, "SET_VELOCITY<2>": 102, "NOTE_ON<2>": 230, "NOTE_OFF<2>": 358, "SET_VELOCITY<3>": 103, "NOTE_ON<3>": 231, "NOTE_OFF<3>": 359, "SET_VELOCITY<4>": 104, "NOTE_ON<4>": 232, "NOTE_OFF<4>": 360, "SET_VELOCITY<5>": 105, "NOTE_ON<5>": 233, "NOTE_OFF<5>": 361, "SET_VELOCITY<6>": 106, "NOTE_ON<6>": 234, "NOTE_OFF<6>": 362, "SET_VELOCITY<7>": 107, "NOTE_ON<7>": 235, "NOTE_OFF<7>": 363, "SET_VELOCITY<8>": 108, "NOTE_ON<8>": 236, "NOTE_OFF<8>": 364, "SET_VELOCITY<9>": 109, "NOTE_ON<9>": 237, "NOTE_OFF<9>": 365, "SET_VELOCITY<10>": 110, "NOTE_ON<10>": 238, "NOTE_OFF<10>": 366, "SET_VELOCITY<11>": 111, "NOTE_ON<11>": 239, "NOTE_OFF<11>": 367, "SET_VELOCITY<12>": 112, "NOTE_ON<12>": 240, "NOTE_OFF<12>": 368, "SET_VELOCITY<13>": 113, "NOTE_ON<13>": 241, "NOTE_OFF<13>": 369, "SET_VELOCITY<14>": 114, "NOTE_ON<14>": 242, "NOTE_OFF<14>": 370, "SET_VELOCITY<15>": 115, "NOTE_ON<15>": 243, "NOTE_OFF<15>": 371, "SET_VELOCITY<16>": 116, "NOTE_ON<16>": 244, "NOTE_OFF<16>": 372, "SET_VELOCITY<17>": 117, "NOTE_ON<17>": 245, "NOTE_OFF<17>": 373, "SET_VELOCITY<18>": 118, "NOTE_ON<18>": 246, "NOTE_OFF<18>": 374, "SET_VELOCITY<19>": 119, "NOTE_ON<19>": 247, "NOTE_OFF<19>": 375, "SET_VELOCITY<20>": 120, "NOTE_ON<20>": 248, "NOTE_OFF<20>": 376, "SET_VELOCITY<21>": 121, "NOTE_ON<21>": 249, "NOTE_OFF<21>": 377, "SET_VELOCITY<22>": 122, "NOTE_ON<22>": 250, "NOTE_OFF<22>": 378, "SET_VELOCITY<23>": 123, "NOTE_ON<23>": 251, "NOTE_OFF<23>": 379, "SET_VELOCITY<24>": 124, "NOTE_ON<24>": 252, "NOTE_OFF<24>": 380, "SET_VELOCITY<25>": 125, "NOTE_ON<25>": 253, "NOTE_OFF<25>": 381, "SET_VELOCITY<26>": 126, "NOTE_ON<26>": 254, "NOTE_OFF<26>": 382, "SET_VELOCITY<27>": 127, "NOTE_ON<27>": 255, "NOTE_OFF<27>": 383, "SET_VELOCITY<28>": 128, "NOTE_ON<28>": 256, "NOTE_OFF<28>": 384, "SET_VELOCITY<29>": 129, "NOTE_ON<29>": 257, "NOTE_OFF<29>": 385, "SET_VELOCITY<30>": 130, "NOTE_ON<30>": 258, "NOTE_OFF<30>": 386, "SET_VELOCITY<31>": 131, "NOTE_ON<31>": 259, "NOTE_OFF<31>": 387, "SET_VELOCITY<32>": 132, "NOTE_ON<32>": 260, "NOTE_OFF<32>": 388, "SET_VELOCITY<33>": 133, "NOTE_ON<33>": 261, "NOTE_OFF<33>": 389, "SET_VELOCITY<34>": 134, "NOTE_ON<34>": 262, "NOTE_OFF<34>": 390, "SET_VELOCITY<35>": 135, "NOTE_ON<35>": 263, "NOTE_OFF<35>": 391, "SET_VELOCITY<36>": 136, "NOTE_ON<36>": 264, "NOTE_OFF<36>": 392, "SET_VELOCITY<37>": 137, "NOTE_ON<37>": 265, "NOTE_OFF<37>": 393, "SET_VELOCITY<38>": 138, "NOTE_ON<38>": 266, "NOTE_OFF<38>": 394, "SET_VELOCITY<39>": 139, "NOTE_ON<39>": 267, "NOTE_OFF<39>": 395, "SET_VELOCITY<40>": 140, "NOTE_ON<40>": 268, "NOTE_OFF<40>": 396, "SET_VELOCITY<41>": 141, "NOTE_ON<41>": 269, "NOTE_OFF<41>": 397, "SET_VELOCITY<42>": 142, "NOTE_ON<42>": 270, "NOTE_OFF<42>": 398, "SET_VELOCITY<43>": 143, "NOTE_ON<43>": 271, "NOTE_OFF<43>": 399, "SET_VELOCITY<44>": 144, "NOTE_ON<44>": 272, "NOTE_OFF<44>": 400, "SET_VELOCITY<45>": 145, "NOTE_ON<45>": 273, "NOTE_OFF<45>": 401, "SET_VELOCITY<46>": 146, "NOTE_ON<46>": 274, "NOTE_OFF<46>": 402, "SET_VELOCITY<47>": 147, "NOTE_ON<47>": 275, "NOTE_OFF<47>": 403, "SET_VELOCITY<48>": 148, "NOTE_ON<48>": 276, "NOTE_OFF<48>": 404, "SET_VELOCITY<49>": 149, "NOTE_ON<49>": 277, "NOTE_OFF<49>": 405, "SET_VELOCITY<50>": 150, "NOTE_ON<50>": 278, "NOTE_OFF<50>": 406, "SET_VELOCITY<51>": 151, "NOTE_ON<51>": 279, "NOTE_OFF<51>": 407, "SET_VELOCITY<52>": 152, "NOTE_ON<52>": 280, "NOTE_OFF<52>": 408, "SET_VELOCITY<53>": 153, "NOTE_ON<53>": 281, "NOTE_OFF<53>": 409, "SET_VELOCITY<54>": 154, "NOTE_ON<54>": 282, "NOTE_OFF<54>": 410, "SET_VELOCITY<55>": 155, "NOTE_ON<55>": 283, "NOTE_OFF<55>": 411, "SET_VELOCITY<56>": 156, "NOTE_ON<56>": 284, "NOTE_OFF<56>": 412, "SET_VELOCITY<57>": 157, "NOTE_ON<57>": 285, "NOTE_OFF<57>": 413, "SET_VELOCITY<58>": 158, "NOTE_ON<58>": 286, "NOTE_OFF<58>": 414, "SET_VELOCITY<59>": 159, "NOTE_ON<59>": 287, "NOTE_OFF<59>": 415, "SET_VELOCITY<60>": 160, "NOTE_ON<60>": 288, "NOTE_OFF<60>": 416, "SET_VELOCITY<61>": 161, "NOTE_ON<61>": 289, "NOTE_OFF<61>": 417, "SET_VELOCITY<62>": 162, "NOTE_ON<62>": 290, "NOTE_OFF<62>": 418, "SET_VELOCITY<63>": 163, "NOTE_ON<63>": 291, "NOTE_OFF<63>": 419, "SET_VELOCITY<64>": 164, "NOTE_ON<64>": 292, "NOTE_OFF<64>": 420, "SET_VELOCITY<65>": 165, "NOTE_ON<65>": 293, "NOTE_OFF<65>": 421, "SET_VELOCITY<66>": 166, "NOTE_ON<66>": 294, "NOTE_OFF<66>": 422, "SET_VELOCITY<67>": 167, "NOTE_ON<67>": 295, "NOTE_OFF<67>": 423, "SET_VELOCITY<68>": 168, "NOTE_ON<68>": 296, "NOTE_OFF<68>": 424, "SET_VELOCITY<69>": 169, "NOTE_ON<69>": 297, "NOTE_OFF<69>": 425, "SET_VELOCITY<70>": 170, "NOTE_ON<70>": 298, "NOTE_OFF<70>": 426, "SET_VELOCITY<71>": 171, "NOTE_ON<71>": 299, "NOTE_OFF<71>": 427, "SET_VELOCITY<72>": 172, "NOTE_ON<72>": 300, "NOTE_OFF<72>": 428, "SET_VELOCITY<73>": 173, "NOTE_ON<73>": 301, "NOTE_OFF<73>": 429, "SET_VELOCITY<74>": 174, "NOTE_ON<74>": 302, "NOTE_OFF<74>": 430, "SET_VELOCITY<75>": 175, "NOTE_ON<75>": 303, "NOTE_OFF<75>": 431, "SET_VELOCITY<76>": 176, "NOTE_ON<76>": 304, "NOTE_OFF<76>": 432, "SET_VELOCITY<77>": 177, "NOTE_ON<77>": 305, "NOTE_OFF<77>": 433, "SET_VELOCITY<78>": 178, "NOTE_ON<78>": 306, "NOTE_OFF<78>": 434, "SET_VELOCITY<79>": 179, "NOTE_ON<79>": 307, "NOTE_OFF<79>": 435, "SET_VELOCITY<80>": 180, "NOTE_ON<80>": 308, "NOTE_OFF<80>": 436, "SET_VELOCITY<81>": 181, "NOTE_ON<81>": 309, "NOTE_OFF<81>": 437, "SET_VELOCITY<82>": 182, "NOTE_ON<82>": 310, "NOTE_OFF<82>": 438, "SET_VELOCITY<83>": 183, "NOTE_ON<83>": 311, "NOTE_OFF<83>": 439, "SET_VELOCITY<84>": 184, "NOTE_ON<84>": 312, "NOTE_OFF<84>": 440, "SET_VELOCITY<85>": 185, "NOTE_ON<85>": 313, "NOTE_OFF<85>": 441, "SET_VELOCITY<86>": 186, "NOTE_ON<86>": 314, "NOTE_OFF<86>": 442, "SET_VELOCITY<87>": 187, "NOTE_ON<87>": 315, "NOTE_OFF<87>": 443, "SET_VELOCITY<88>": 188, "NOTE_ON<88>": 316, "NOTE_OFF<88>": 444, "SET_VELOCITY<89>": 189, "NOTE_ON<89>": 317, "NOTE_OFF<89>": 445, "SET_VELOCITY<90>": 190, "NOTE_ON<90>": 318, "NOTE_OFF<90>": 446, "SET_VELOCITY<91>": 191, "NOTE_ON<91>": 319, "NOTE_OFF<91>": 447, "SET_VELOCITY<92>": 192, "NOTE_ON<92>": 320, "NOTE_OFF<92>": 448, "SET_VELOCITY<93>": 193, "NOTE_ON<93>": 321, "NOTE_OFF<93>": 449, "SET_VELOCITY<94>": 194, "NOTE_ON<94>": 322, "NOTE_OFF<94>": 450, "SET_VELOCITY<95>": 195, "NOTE_ON<95>": 323, "NOTE_OFF<95>": 451, "SET_VELOCITY<96>": 196, "NOTE_ON<96>": 324, "NOTE_OFF<96>": 452, "SET_VELOCITY<97>": 197, "NOTE_ON<97>": 325, "NOTE_OFF<97>": 453, "SET_VELOCITY<98>": 198, "NOTE_ON<98>": 326, "NOTE_OFF<98>": 454, "SET_VELOCITY<99>": 199, "NOTE_ON<99>": 327, "NOTE_OFF<99>": 455, "SET_VELOCITY<100>": 200, "NOTE_ON<100>": 328, "NOTE_OFF<100>": 456, "SET_VELOCITY<101>": 201, "NOTE_ON<101>": 329, "NOTE_OFF<101>": 457, "SET_VELOCITY<102>": 202, "NOTE_ON<102>": 330, "NOTE_OFF<102>": 458, "SET_VELOCITY<103>": 203, "NOTE_ON<103>": 331, "NOTE_OFF<103>": 459, "SET_VELOCITY<104>": 204, "NOTE_ON<104>": 332, "NOTE_OFF<104>": 460, "SET_VELOCITY<105>": 205, "NOTE_ON<105>": 333, "NOTE_OFF<105>": 461, "SET_VELOCITY<106>": 206, "NOTE_ON<106>": 334, "NOTE_OFF<106>": 462, "SET_VELOCITY<107>": 207, "NOTE_ON<107>": 335, "NOTE_OFF<107>": 463, "SET_VELOCITY<108>": 208, "NOTE_ON<108>": 336, "NOTE_OFF<108>": 464, "SET_VELOCITY<109>": 209, "NOTE_ON<109>": 337, "NOTE_OFF<109>": 465, "SET_VELOCITY<110>": 210, "NOTE_ON<110>": 338, "NOTE_OFF<110>": 466, "SET_VELOCITY<111>": 211, "NOTE_ON<111>": 339, "NOTE_OFF<111>": 467, "SET_VELOCITY<112>": 212, "NOTE_ON<112>": 340, "NOTE_OFF<112>": 468, "SET_VELOCITY<113>": 213, "NOTE_ON<113>": 341, "NOTE_OFF<113>": 469, "SET_VELOCITY<114>": 214, "NOTE_ON<114>": 342, "NOTE_OFF<114>": 470, "SET_VELOCITY<115>": 215, "NOTE_ON<115>": 343, "NOTE_OFF<115>": 471, "SET_VELOCITY<116>": 216, "NOTE_ON<116>": 344, "NOTE_OFF<116>": 472, "SET_VELOCITY<117>": 217, "NOTE_ON<117>": 345, "NOTE_OFF<117>": 473, "SET_VELOCITY<118>": 218, "NOTE_ON<118>": 346, "NOTE_OFF<118>": 474, "SET_VELOCITY<119>": 219, "NOTE_ON<119>": 347, "NOTE_OFF<119>": 475, "SET_VELOCITY<120>": 220, "NOTE_ON<120>": 348, "NOTE_OFF<120>": 476, "SET_VELOCITY<121>": 221, "NOTE_ON<121>": 349, "NOTE_OFF<121>": 477, "SET_VELOCITY<122>": 222, "NOTE_ON<122>": 350, "NOTE_OFF<122>": 478, "SET_VELOCITY<123>": 223, "NOTE_ON<123>": 351, "NOTE_OFF<123>": 479, "SET_VELOCITY<124>": 224, "NOTE_ON<124>": 352, "NOTE_OFF<124>": 480, "SET_VELOCITY<125>": 225, "NOTE_ON<125>": 353, "NOTE_OFF<125>": 481, "SET_VELOCITY<126>": 226, "NOTE_ON<126>": 354, "NOTE_OFF<126>": 482, "SET_VELOCITY<127>": 227, "NOTE_ON<127>": 355, "NOTE_OFF<127>": 483}, "id2token": {"0": "TIME_SHIFT<10>", "1": "TIME_SHIFT<20>", "2": "TIME_SHIFT<30>", "3": "TIME_SHIFT<40>", "4": "TIME_SHIFT<50>", "5": "TIME_SHIFT<60>", "6": "TIME_SHIFT<70>", "7": "TIME_SHIFT<80>", "8": "TIME_SHIFT<90>", "9": "TIME_SHIFT<100>", "10": "TIME_SHIFT<110>", "11": "TIME_SHIFT<120>", "12": "TIME_SHIFT<130>", "13": "TIME_SHIFT<140>", "14": "TIME_SHIFT<150>", "15": "TIME_SHIFT<160>", "16": "TIME_SHIFT<170>", "17": "TIME_SHIFT<180>", "18": "TIME_SHIFT<190>", "19": "TIME_SHIFT<200>", "20": "TIME_SHIFT<210>", "21": "TIME_SHIFT<220>", "22": "TIME_SHIFT<230>", "23": "TIME_SHIFT<240>", "24": "TIME_SHIFT<250>", "25": "TIME_SHIFT<260>", "26": "TIME_SHIFT<270>", "27": "TIME_SHIFT<280>", "28": "TIME_SHIFT<290>", "29": "TIME_SHIFT<300>", "30": "TIME_SHIFT<310>", "31": "TIME_SHIFT<320>", "32": "TIME_SHIFT<330>", "33": "TIME_SHIFT<340>", "34": "TIME_SHIFT<350>", "35": "TIME_SHIFT<360>", "36": "TIME_SHIFT<370>", "37": "TIME_SHIFT<380>", "38": "TIME_SHIFT<390>", "39": "TIME_SHIFT<400>", "40": "TIME_SHIFT<410>", "41": "TIME_SHIFT<420>", "42": "TIME_SHIFT<430>", "43": "TIME_SHIFT<440>", "44": "TIME_SHIFT<450>", "45": "TIME_SHIFT<460>", "46": "TIME_SHIFT<470>", "47": "TIME_SHIFT<480>", "48": "TIME_SHIFT<490>", "49": "TIME_SHIFT<500>", "50": "TIME_SHIFT<510>", "51": "TIME_SHIFT<520>", "52": "TIME_SHIFT<530>", "53": "TIME_SHIFT<540>", "54": "TIME_SHIFT<550>", "55": "TIME_SHIFT<560>", "56": "TIME_SHIFT<570>", "57": "TIME_SHIFT<580>", "58": "TIME_SHIFT<590>", "59": "TIME_SHIFT<600>", "60": "TIME_SHIFT<610>", "61": "TIME_SHIFT<620>", "62": "TIME_SHIFT<630>", "63": "TIME_SHIFT<640>", "64": "TIME_SHIFT<650>", "65": "TIME_SHIFT<660>", "66": "TIME_SHIFT<670>", "67": "TIME_SHIFT<680>", "68": "TIME_SHIFT<690>", "69": "TIME_SHIFT<700>", "70": "TIME_SHIFT<710>", "71": "TIME_SHIFT<720>", "72": "TIME_SHIFT<730>", "73": "TIME_SHIFT<740>", "74": "TIME_SHIFT<750>", "75": "TIME_SHIFT<760>", "76": "TIME_SHIFT<770>", "77": "TIME_SHIFT<780>", "78": "TIME_SHIFT<790>", "79": "TIME_SHIFT<800>", "80": "TIME_SHIFT<810>", "81": "TIME_SHIFT<820>", "82": "TIME_SHIFT<830>", "83": "TIME_SHIFT<840>", "84": "TIME_SHIFT<850>", "85": "TIME_SHIFT<860>", "86": "TIME_SHIFT<870>", "87": "TIME_SHIFT<880>", "88": "TIME_SHIFT<890>", "89": "TIME_SHIFT<900>", "90": "TIME_SHIFT<910>", "91": "TIME_SHIFT<920>", "92": "TIME_SHIFT<930>", "93": "TIME_SHIFT<940>", "94": "TIME_SHIFT<950>", "95": "TIME_SHIFT<960>", "96": "TIME_SHIFT<970>", "97": "TIME_SHIFT<980>", "98": "TIME_SHIFT<990>", "99": "TIME_SHIFT<1000>", "100": "SET_VELOCITY<0>", "228": "NOTE_ON<0>", "356": "NOTE_OFF<0>", "101": "SET_VELOCITY<1>", "229": "NOTE_ON<1>", "357": "NOTE_OFF<1>", "102": "SET_VELOCITY<2>", "230": "NOTE_ON<2>", "358": "NOTE_OFF<2>", "103": "SET_VELOCITY<3>", "231": "NOTE_ON<3>", "359": "NOTE_OFF<3>", "104": "SET_VELOCITY<4>", "232": "NOTE_ON<4>", "360": "NOTE_OFF<4>", "105": "SET_VELOCITY<5>", "233": "NOTE_ON<5>", "361": "NOTE_OFF<5>", "106": "SET_VELOCITY<6>", "234": "NOTE_ON<6>", "362": "NOTE_OFF<6>", "107": "SET_VELOCITY<7>", "235": "NOTE_ON<7>", "363": "NOTE_OFF<7>", "108": "SET_VELOCITY<8>", "236": "NOTE_ON<8>", "364": "NOTE_OFF<8>", "109": "SET_VELOCITY<9>", "237": "NOTE_ON<9>", "365": "NOTE_OFF<9>", "110": "SET_VELOCITY<10>", "238": "NOTE_ON<10>", "366": "NOTE_OFF<10>", "111": "SET_VELOCITY<11>", "239": "NOTE_ON<11>", "367": "NOTE_OFF<11>", "112": "SET_VELOCITY<12>", "240": "NOTE_ON<12>", "368": "NOTE_OFF<12>", "113": "SET_VELOCITY<13>", "241": "NOTE_ON<13>", "369": "NOTE_OFF<13>", "114": "SET_VELOCITY<14>", "242": "NOTE_ON<14>", "370": "NOTE_OFF<14>", "115": "SET_VELOCITY<15>", "243": "NOTE_ON<15>", "371": "NOTE_OFF<15>", "116": "SET_VELOCITY<16>", "244": "NOTE_ON<16>", "372": "NOTE_OFF<16>", "117": "SET_VELOCITY<17>", "245": "NOTE_ON<17>", "373": "NOTE_OFF<17>", "118": "SET_VELOCITY<18>", "246": "NOTE_ON<18>", "374": "NOTE_OFF<18>", "119": "SET_VELOCITY<19>", "247": "NOTE_ON<19>", "375": "NOTE_OFF<19>", "120": "SET_VELOCITY<20>", "248": "NOTE_ON<20>", "376": "NOTE_OFF<20>", "121": "SET_VELOCITY<21>", "249": "NOTE_ON<21>", "377": "NOTE_OFF<21>", "122": "SET_VELOCITY<22>", "250": "NOTE_ON<22>", "378": "NOTE_OFF<22>", "123": "SET_VELOCITY<23>", "251": "NOTE_ON<23>", "379": "NOTE_OFF<23>", "124": "SET_VELOCITY<24>", "252": "NOTE_ON<24>", "380": "NOTE_OFF<24>", "125": "SET_VELOCITY<25>", "253": "NOTE_ON<25>", "381": "NOTE_OFF<25>", "126": "SET_VELOCITY<26>", "254": "NOTE_ON<26>", "382": "NOTE_OFF<26>", "127": "SET_VELOCITY<27>", "255": "NOTE_ON<27>", "383": "NOTE_OFF<27>", "128": "SET_VELOCITY<28>", "256": "NOTE_ON<28>", "384": "NOTE_OFF<28>", "129": "SET_VELOCITY<29>", "257": "NOTE_ON<29>", "385": "NOTE_OFF<29>", "130": "SET_VELOCITY<30>", "258": "NOTE_ON<30>", "386": "NOTE_OFF<30>", "131": "SET_VELOCITY<31>", "259": "NOTE_ON<31>", "387": "NOTE_OFF<31>", "132": "SET_VELOCITY<32>", "260": "NOTE_ON<32>", "388": "NOTE_OFF<32>", "133": "SET_VELOCITY<33>", "261": "NOTE_ON<33>", "389": "NOTE_OFF<33>", "134": "SET_VELOCITY<34>", "262": "NOTE_ON<34>", "390": "NOTE_OFF<34>", "135": "SET_VELOCITY<35>", "263": "NOTE_ON<35>", "391": "NOTE_OFF<35>", "136": "SET_VELOCITY<36>", "264": "NOTE_ON<36>", "392": "NOTE_OFF<36>", "137": "SET_VELOCITY<37>", "265": "NOTE_ON<37>", "393": "NOTE_OFF<37>", "138": "SET_VELOCITY<38>", "266": "NOTE_ON<38>", "394": "NOTE_OFF<38>", "139": "SET_VELOCITY<39>", "267": "NOTE_ON<39>", "395": "NOTE_OFF<39>", "140": "SET_VELOCITY<40>", "268": "NOTE_ON<40>", "396": "NOTE_OFF<40>", "141": "SET_VELOCITY<41>", "269": "NOTE_ON<41>", "397": "NOTE_OFF<41>", "142": "SET_VELOCITY<42>", "270": "NOTE_ON<42>", "398": "NOTE_OFF<42>", "143": "SET_VELOCITY<43>", "271": "NOTE_ON<43>", "399": "NOTE_OFF<43>", "144": "SET_VELOCITY<44>", "272": "NOTE_ON<44>", "400": "NOTE_OFF<44>", "145": "SET_VELOCITY<45>", "273": "NOTE_ON<45>", "401": "NOTE_OFF<45>", "146": "SET_VELOCITY<46>", "274": "NOTE_ON<46>", "402": "NOTE_OFF<46>", "147": "SET_VELOCITY<47>", "275": "NOTE_ON<47>", "403": "NOTE_OFF<47>", "148": "SET_VELOCITY<48>", "276": "NOTE_ON<48>", "404": "NOTE_OFF<48>", "149": "SET_VELOCITY<49>", "277": "NOTE_ON<49>", "405": "NOTE_OFF<49>", "150": "SET_VELOCITY<50>", "278": "NOTE_ON<50>", "406": "NOTE_OFF<50>", "151": "SET_VELOCITY<51>", "279": "NOTE_ON<51>", "407": "NOTE_OFF<51>", "152": "SET_VELOCITY<52>", "280": "NOTE_ON<52>", "408": "NOTE_OFF<52>", "153": "SET_VELOCITY<53>", "281": "NOTE_ON<53>", "409": "NOTE_OFF<53>", "154": "SET_VELOCITY<54>", "282": "NOTE_ON<54>", "410": "NOTE_OFF<54>", "155": "SET_VELOCITY<55>", "283": "NOTE_ON<55>", "411": "NOTE_OFF<55>", "156": "SET_VELOCITY<56>", "284": "NOTE_ON<56>", "412": "NOTE_OFF<56>", "157": "SET_VELOCITY<57>", "285": "NOTE_ON<57>", "413": "NOTE_OFF<57>", "158": "SET_VELOCITY<58>", "286": "NOTE_ON<58>", "414": "NOTE_OFF<58>", "159": "SET_VELOCITY<59>", "287": "NOTE_ON<59>", "415": "NOTE_OFF<59>", "160": "SET_VELOCITY<60>", "288": "NOTE_ON<60>", "416": "NOTE_OFF<60>", "161": "SET_VELOCITY<61>", "289": "NOTE_ON<61>", "417": "NOTE_OFF<61>", "162": "SET_VELOCITY<62>", "290": "NOTE_ON<62>", "418": "NOTE_OFF<62>", "163": "SET_VELOCITY<63>", "291": "NOTE_ON<63>", "419": "NOTE_OFF<63>", "164": "SET_VELOCITY<64>", "292": "NOTE_ON<64>", "420": "NOTE_OFF<64>", "165": "SET_VELOCITY<65>", "293": "NOTE_ON<65>", "421": "NOTE_OFF<65>", "166": "SET_VELOCITY<66>", "294": "NOTE_ON<66>", "422": "NOTE_OFF<66>", "167": "SET_VELOCITY<67>", "295": "NOTE_ON<67>", "423": "NOTE_OFF<67>", "168": "SET_VELOCITY<68>", "296": "NOTE_ON<68>", "424": "NOTE_OFF<68>", "169": "SET_VELOCITY<69>", "297": "NOTE_ON<69>", "425": "NOTE_OFF<69>", "170": "SET_VELOCITY<70>", "298": "NOTE_ON<70>", "426": "NOTE_OFF<70>", "171": "SET_VELOCITY<71>", "299": "NOTE_ON<71>", "427": "NOTE_OFF<71>", "172": "SET_VELOCITY<72>", "300": "NOTE_ON<72>", "428": "NOTE_OFF<72>", "173": "SET_VELOCITY<73>", "301": "NOTE_ON<73>", "429": "NOTE_OFF<73>", "174": "SET_VELOCITY<74>", "302": "NOTE_ON<74>", "430": "NOTE_OFF<74>", "175": "SET_VELOCITY<75>", "303": "NOTE_ON<75>", "431": "NOTE_OFF<75>", "176": "SET_VELOCITY<76>", "304": "NOTE_ON<76>", "432": "NOTE_OFF<76>", "177": "SET_VELOCITY<77>", "305": "NOTE_ON<77>", "433": "NOTE_OFF<77>", "178": "SET_VELOCITY<78>", "306": "NOTE_ON<78>", "434": "NOTE_OFF<78>", "179": "SET_VELOCITY<79>", "307": "NOTE_ON<79>", "435": "NOTE_OFF<79>", "180": "SET_VELOCITY<80>", "308": "NOTE_ON<80>", "436": "NOTE_OFF<80>", "181": "SET_VELOCITY<81>", "309": "NOTE_ON<81>", "437": "NOTE_OFF<81>", "182": "SET_VELOCITY<82>", "310": "NOTE_ON<82>", "438": "NOTE_OFF<82>", "183": "SET_VELOCITY<83>", "311": "NOTE_ON<83>", "439": "NOTE_OFF<83>", "184": "SET_VELOCITY<84>", "312": "NOTE_ON<84>", "440": "NOTE_OFF<84>", "185": "SET_VELOCITY<85>", "313": "NOTE_ON<85>", "441": "NOTE_OFF<85>", "186": "SET_VELOCITY<86>", "314": "NOTE_ON<86>", "442": "NOTE_OFF<86>", "187": "SET_VELOCITY<87>", "315": "NOTE_ON<87>", "443": "NOTE_OFF<87>", "188": "SET_VELOCITY<88>", "316": "NOTE_ON<88>", "444": "NOTE_OFF<88>", "189": "SET_VELOCITY<89>", "317": "NOTE_ON<89>", "445": "NOTE_OFF<89>", "190": "SET_VELOCITY<90>", "318": "NOTE_ON<90>", "446": "NOTE_OFF<90>", "191": "SET_VELOCITY<91>", "319": "NOTE_ON<91>", "447": "NOTE_OFF<91>", "192": "SET_VELOCITY<92>", "320": "NOTE_ON<92>", "448": "NOTE_OFF<92>", "193": "SET_VELOCITY<93>", "321": "NOTE_ON<93>", "449": "NOTE_OFF<93>", "194": "SET_VELOCITY<94>", "322": "NOTE_ON<94>", "450": "NOTE_OFF<94>", "195": "SET_VELOCITY<95>", "323": "NOTE_ON<95>", "451": "NOTE_OFF<95>", "196": "SET_VELOCITY<96>", "324": "NOTE_ON<96>", "452": "NOTE_OFF<96>", "197": "SET_VELOCITY<97>", "325": "NOTE_ON<97>", "453": "NOTE_OFF<97>", "198": "SET_VELOCITY<98>", "326": "NOTE_ON<98>", "454": "NOTE_OFF<98>", "199": "SET_VELOCITY<99>", "327": "NOTE_ON<99>", "455": "NOTE_OFF<99>", "200": "SET_VELOCITY<100>", "328": "NOTE_ON<100>", "456": "NOTE_OFF<100>", "201": "SET_VELOCITY<101>", "329": "NOTE_ON<101>", "457": "NOTE_OFF<101>", "202": "SET_VELOCITY<102>", "330": "NOTE_ON<102>", "458": "NOTE_OFF<102>", "203": "SET_VELOCITY<103>", "331": "NOTE_ON<103>", "459": "NOTE_OFF<103>", "204": "SET_VELOCITY<104>", "332": "NOTE_ON<104>", "460": "NOTE_OFF<104>", "205": "SET_VELOCITY<105>", "333": "NOTE_ON<105>", "461": "NOTE_OFF<105>", "206": "SET_VELOCITY<106>", "334": "NOTE_ON<106>", "462": "NOTE_OFF<106>", "207": "SET_VELOCITY<107>", "335": "NOTE_ON<107>", "463": "NOTE_OFF<107>", "208": "SET_VELOCITY<108>", "336": "NOTE_ON<108>", "464": "NOTE_OFF<108>", "209": "SET_VELOCITY<109>", "337": "NOTE_ON<109>", "465": "NOTE_OFF<109>", "210": "SET_VELOCITY<110>", "338": "NOTE_ON<110>", "466": "NOTE_OFF<110>", "211": "SET_VELOCITY<111>", "339": "NOTE_ON<111>", "467": "NOTE_OFF<111>", "212": "SET_VELOCITY<112>", "340": "NOTE_ON<112>", "468": "NOTE_OFF<112>", "213": "SET_VELOCITY<113>", "341": "NOTE_ON<113>", "469": "NOTE_OFF<113>", "214": "SET_VELOCITY<114>", "342": "NOTE_ON<114>", "470": "NOTE_OFF<114>", "215": "SET_VELOCITY<115>", "343": "NOTE_ON<115>", "471": "NOTE_OFF<115>", "216": "SET_VELOCITY<116>", "344": "NOTE_ON<116>", "472": "NOTE_OFF<116>", "217": "SET_VELOCITY<117>", "345": "NOTE_ON<117>", "473": "NOTE_OFF<117>", "218": "SET_VELOCITY<118>", "346": "NOTE_ON<118>", "474": "NOTE_OFF<118>", "219": "SET_VELOCITY<119>", "347": "NOTE_ON<119>", "475": "NOTE_OFF<119>", "220": "SET_VELOCITY<120>", "348": "NOTE_ON<120>", "476": "NOTE_OFF<120>", "221": "SET_VELOCITY<121>", "349": "NOTE_ON<121>", "477": "NOTE_OFF<121>", "222": "SET_VELOCITY<122>", "350": "NOTE_ON<122>", "478": "NOTE_OFF<122>", "223": "SET_VELOCITY<123>", "351": "NOTE_ON<123>", "479": "NOTE_OFF<123>", "224": "SET_VELOCITY<124>", "352": "NOTE_ON<124>", "480": "NOTE_OFF<124>", "225": "SET_VELOCITY<125>", "353": "NOTE_ON<125>", "481": "NOTE_OFF<125>", "226": "SET_VELOCITY<126>", "354": "NOTE_ON<126>", "482": "NOTE_OFF<126>", "227": "SET_VELOCITY<127>", "355": "NOTE_ON<127>", "483": "NOTE_OFF<127>"}}